<svg width="48" height="45" viewBox="0 0 48 45" fill="none" xmlns="http://www.w3.org/2000/svg">
<path d="M19.12 38C18.1 37.82 3.12 43.3 3.12 43.3C6.8 39.84 8.7 36.5 8.26 33.18C6.21362 31.652 4.54159 29.6785 3.37043 27.409C2.19927 25.1394 1.55966 22.6332 1.5 20.08C1.5 9.94 11.5 1.72 24 1.72C36.5 1.72 46.5 9.94 46.5 20.08C46.5 30.22 36.42 38.5 24 38.5C22.3617 38.4791 20.7285 38.3118 19.12 38V38Z" stroke="black" stroke-width="3" stroke-linecap="round" stroke-linejoin="round"/>
<path d="M27.8199 8.1C34.6199 9.5 39.6599 14.5 39.6599 20.48C39.5984 22.3897 39.0818 24.2572 38.153 25.9269C37.2242 27.5967 35.91 29.0205 34.3199 30.08" stroke="black" stroke-width="3" stroke-linecap="round" stroke-linejoin="round"/>
</svg>
