<svg width="48" height="48" viewBox="0 0 48 48" fill="none" xmlns="http://www.w3.org/2000/svg">
<path d="M12 26.446L16.9 33.4C17.0859 33.6776 17.3354 33.9069 17.6277 34.0686C17.92 34.2304 18.2468 34.32 18.5807 34.3299C18.9147 34.3399 19.2462 34.27 19.5477 34.126C19.8492 33.982 20.1119 33.768 20.314 33.502L36 13.656" stroke="black" stroke-width="3" stroke-linecap="round" stroke-linejoin="round"/>
<path d="M1.5 23.998C1.5 29.9654 3.87053 35.6883 8.0901 39.9079C12.3097 44.1275 18.0326 46.498 24 46.498C29.9674 46.498 35.6903 44.1275 39.9099 39.9079C44.1295 35.6883 46.5 29.9654 46.5 23.998C46.5 18.0306 44.1295 12.3077 39.9099 8.0881C35.6903 3.86853 29.9674 1.498 24 1.498C18.0326 1.498 12.3097 3.86853 8.0901 8.0881C3.87053 12.3077 1.5 18.0306 1.5 23.998V23.998Z" stroke="black" stroke-width="3" stroke-linecap="round" stroke-linejoin="round"/>
</svg>
